<?xml version="1.0" encoding="UTF-8"?>
<svg xmlns="http://www.w3.org/2000/svg" viewBox="0 0 144 144">
  <defs>
    <style>
      .cls-1 {
        fill: #df5e00;
      }

      .cls-1, .cls-2, .cls-3, .cls-4, .cls-5 {
        stroke-width: 0px;
      }

      .cls-2 {
        fill: #1c3132;
      }

      .cls-3 {
        fill: #0d1b1c;
      }

      .cls-4 {
        fill: #efab30;
      }

      .cls-5 {
        fill: #476762;
      }
    </style>
  </defs>
  <g id="Earth">
    <g id="Circle">
      <path class="cls-3" d="M72,141.5c-38.32,0-69.5-31.18-69.5-69.5S33.68,2.5,72,2.5s69.5,31.18,69.5,69.5-31.18,69.5-69.5,69.5Z"/>
      <path class="cls-3" d="M72,5c36.94,0,67,30.06,67,67s-30.06,67-67,67S5,108.94,5,72,35.06,5,72,5M72,0C32.24,0,0,32.24,0,72s32.24,72,72,72,72-32.24,72-72S111.76,0,72,0h0Z"/>
    </g>
    <g id="Continents">
      <path class="cls-5" d="M71.47,136.51c-2.02,0-4.02-.09-6-.28,1.11-.15,2.01-.8,2.44-1.79.5-1.15.25-2.53-.67-3.59-.44-.51-.96-.99-1.63-1.49.14-.46.26-.9.37-1.42.28-1.28.1-2.34-.56-3.16-.17-.21-.43-.48-.82-.71.29-.55.46-1.21.33-1.98-.01-.08-.03-.17-.05-.25.6-.24,1.16-.51,1.69-.77.34-.17.69-.33,1.04-.49.52-.22,1.72-.75,2.36-2.09.78-1.62,1.96-3.07,3.22-4.59.29-.35.58-.71.87-1.07,1.16-1.44,1.48-3.03.97-4.86l-.1-.37c-.28-.97-.31-1.24-.23-1.4.15,0,.31.01.46.02.28.01.56.03.83.03.88,0,2.19-.11,3.51-1.05,1.93-1.38,2.91-3.19,2.98-5.54.02-.61.08-1.25.16-1.92.06-.54.11-1.09.15-1.63.07-1.04.36-1.77.99-2.44,1.05-1.12,2.15-2.52,2.42-4.52.33-2.48-1.24-3.67-2.69-3.94-.38-.07-.62-.2-.84-.73-.73-1.72-2.22-2.7-4.08-2.7-.16,0-.33,0-.51.02-.44.04-.88.06-1.31.06-1.91,0-3.66-.37-5.33-1.13-.12-1.53-.39-3.14-1.45-4.7-.35-.52-1.42-2.11-3.54-2.11-.26,0-.52.03-.79.08-.2.04-.39.06-.55.06h0c-.36,0-.84,0-1.4-1.28-.61-1.38-1.52-2.36-2.71-2.89l-.14-.07c-.35-.17-.94-.46-1.72-.46-.64,0-1.52.19-2.34,1.04-.03,0-.07,0-.11,0-.43,0-.83-.08-1.06-.15-1.5-2.02-3.68-2.24-5.01-2.38-.31-.03-.61-.06-.91-.11-.2-.04-.4-.06-.59-.06-.59,0-2.07.2-3.08,2.01-.79,1.42-1.54,1.53-2.18,1.53-.41,0-.88-.08-1.41-.23-.02-.57-.07-1.1-.11-1.61-.04-.46-.09-.91-.1-1.37-.02-.89-.33-2.94-2.79-3.59.19-.53.33-1.22.2-2.05-.33-2.08-1.79-2.81-2.93-2.81-.67,0-1.32.22-1.99.69-1.06.73-2.13,1.44-3.21,2.14-.16.04-.53.11-1,.11-.09,0-.17,0-.24,0-.32-.5-.27-.71-.22-.9.43-1.62.92-2.7,1.55-3.38.93-1.01,2.22-1.64,3.64-1.76.54-.05,1.15-.07,1.89-.07.5,0,.99,0,1.49.02.4,0,.81.01,1.21.02.48,1.82,2.07,3.22,4.02,3.42.13.01.25.02.37.02.82,0,1.56-.31,2.09-.87.31-.33.82-1.05.76-2.18-.01-.21-.03-.52-.12-.89-.21-.8-.21-1.43,1.65-2.71.71-.49,1.31-.9,1.92-1.26.73-.43,2.57-1.51,2.76-3.78.24-.28.48-.57.71-.86.84-1.02,1.63-1.99,2.51-2.47,2.12-1.16,4.02-2.67,6.12-4.85.35.14.72.21,1.1.21,1.1,0,2.09-.6,2.69-1.65.09-.16.17-.32.23-.48.17.02.35.04.54.04.03,0,.07,0,.1,0,0,.03.02.05.03.08.52,1.51,1.94,1.97,2.88,2.28l.33.11c.49.16,1.05.35,1.64.48.32.07.7.16,1.15.16,1.42,0,2.57-.86,3-2.24.36-1.19.12-2.64-1.09-3.63.28-.42.49-.95.59-1.61.42-2.9-1.26-4.06-2.3-4.49-.13-.05-.2-.1-.23-.12,0-.02-.02-.16,0-.44.03-.88.08-2.05-.65-3,.24-.27.44-.58.6-.93h.03c.25,0,.5-.02.75-.04.98-.08,2.58-.54,3.29-2.81.27-.87.18-1.75-.25-2.48-.36-.61-.86-.96-1.31-1.17-.15-1.57-1.11-2.76-2.71-3.38-.98-.38-2.03-.8-2.96-1.29-1.22-.65-2.54-.97-3.94-.97-1.1,0-2.15.2-3.14.46l.12-.31-3.93.3c-.09,0-.18,0-.27,0-.34,0-.72-.04-1.12-.08-.47-.05-1.01-.11-1.58-.11-.49,0-.94.04-1.38.13-.43.08-.8.21-1.12.36-.52-.36-1.13-.55-1.76-.55-.98,0-1.91.46-2.61,1.29-.21.25-.29.26-.51.26-.06,0-.13,0-.2-.01-.27-.03-.34-.07-.34-.07,0,0-.05-.04-.11-.13-.4-.59-.95-1.09-1.6-1.5,4.6-1.98,9.42-3.42,14.4-4.28,1.31-.23,2.66-.42,3.98-.6.57-.08,1.14-.16,1.71-.24h10.64c4.1.54,7.8,1.07,11.44,2.06,8.61,2.33,16.61,6.42,23.79,12.19-.04.01-.25.09-.25.09-1.12.4-2.04,1.13-2.8,2.25-.75,1.08-.91,2.42-.45,3.57.38.95,1.17,1.68,2.15,2.02.03.09.07.18.11.27-.58.22-1.11.53-1.57.92-.75-.49-1.2-1.29-1.53-2.69-.36-2.9-2.65-3.05-3.11-3.05-.13,0-.27,0-.42.02-.83.1-3.05.36-3.96,2.67-.06.15-.12.34-.17.56-1.96.77-3.51,2.83-3.6,5.03-.02.94.29,1.77.88,2.38.58.6,1.38.92,2.24.92h0c.59,0,1.19-.15,1.78-.45.07-.04.14-.07.21-.11.27.41.63.74,1.05.97,0,.02,0,.04,0,.06l-.02.09c-.12.45-.17.86-.17,1.22-.1,0-.21,0-.31,0-.86,0-1.66.12-2.45.38-3.13,1.01-3.61,3.28-3.47,5.01.03.36.09.72.16,1.07.04.23.09.5.09.61-.02,1.05.28,1.95.89,2.67-.11.07-.81.52-.81.52-1.97,1.23-1.66,3.39-1.56,4.1l.02.16c.05.41.07.52-.55.91-1.51.96-2.93,2.02-4.3,3.05l-.85.64c-1.08.81-1.66,2.15-1.53,3.58.08.98.49,1.85,1.12,2.48-.56.82-.65,1.65-.71,2.15-.29,2.68-.24,6.58,3.42,9.57.76.62,1.45,1.53,2.15,2.48,1.1,1.51,2.67,2.34,4.4,2.34.45,0,.92-.06,1.39-.17.84-.2,1.76-.22,2.64-.22h.93c.23,0,.46,0,.69,0,1.22-.02,2.24-.37,3.1-1.07.41-.34.71-.46.83-.46.11,0,.37.12.73.45.98.9,2.09,1.36,3.3,1.36h.11c.14,0,.3,0,.47.02-.31,2.02-.4,4.88,1.58,7.6.53.73.99,1.58,1.47,2.49.32.6.65,1.2.99,1.78-.52.91-.96,1.8-1.37,2.66l-.1.2c-1.2,2.46-.77,4.91,1.19,6.7.33.3.32.38.3.57-.05.52-.04,1-.02,1.43,0,.27.02.54,0,.81-.17,1.93.43,3.64,1.71,4.95.77.79,1.04,1.59.9,2.68-.16,1.21.06,2.18.65,2.94-1.53,1.74-3.17,3.39-4.9,4.92-9.39,8.34-20.13,13.59-31.9,15.6-4.01.68-7.99,1.03-11.84,1.03ZM59.74,135.41c-7.62-1.46-14.91-4.37-21.8-8.7-15.35-9.65-25.12-23.53-29.05-41.24-2.46-11.07-1.9-22.22,1.64-33.19.13.05.26.1.39.15-.45,3.03.37,5.92,2.51,8.82.18.3.49.83,1.11,1.23.91.59,1.8.89,2.67.89.29,0,.58-.03.85-.1.28,2.15,3.05,5.26,5.18,5.79l.73.19c.72.19,1.45.37,2.18.52l.14.04c.3.09.75.22,1.31.22.32,0,.7-.04,1.11-.18.76,1.38,2.11,1.59,2.59,1.62,1.88.12,3.33,1.1,4.69,3.17,1.45,2.2,3.55,2.36,4.81,2.46.32.02.61.05.82.09.22.05.45.08.7.09.07.35.07.55.07.65-.01,0-.02.02-.04.02-2.51,1.41-3.72,3.56-3.61,6.37.02.61-.04,1.15-.18,1.6-.32,1-.41,2.53.93,4.14.58.69,1.14,1.4,1.7,2.11.49.62.98,1.24,1.49,1.85.52.64.83,1.02.85,1.33.13,1.68,1.26,2.96,2.94,3.32.91.2,1.75.85,2.73,1.62.24.18.48.37.72.55v8.87c0,1.32.35,2.34,1.07,3.04-.96,3.16-.39,5.84,1.69,7.96-.01.22-.08.59-.13.84l-.06.33c-.4,2.26,0,4.37,1.27,6.62,1.29,2.29,2.96,4.33,5.1,6.25.3.27.6.49.9.68ZM133.05,51.21c-1.58-.01-2.44-.32-3.17-1.1-.45-.48-1.16-1.04-2.18-1.28.15-.14.29-.3.42-.5,1.33,1.52,2.81,1.86,3.88,1.86.25,0,.51-.02.77-.06.08.37.18.73.29,1.08ZM122.04,50.37c-.71-.27-1.41-.45-2.08-.61,1.56-.14,2.49-1.14,3.03-2.02.07.07.14.13.2.2.18.17.37.34.52.53.19.23.39.41.58.56,0,0,0,0-.01,0-.2.02-1.51.16-2.24,1.35ZM110.47,45.34c.22-.25.44-.51.62-.77.05-.08.18-.25.29-.4.32.1.63.15.95.15.72,0,1.31-.23,1.78-.52.22.17.42.31.59.42.42.28.84.56,1.25.83-.03.06-.07.13-.1.2-.58-.2-1.1-.2-1.34-.2-.46,0-.96.05-1.59.12-.77.08-1.57.14-2.44.18ZM54.62,29.66c-.68-.89-1.85-1.32-3.83-1.67-.18-.03-.35-.11-.49-.23.36-.22.71-.43,1.06-.65,1.15-.71,2.26-1.39,3.4-1.86.48.65,1.2,1.1,2.06,1.24.15.02.3.04.44.05,0,.11-.01.36-.01.36v.12c0,.48,0,.98-.03,1.31-.33.14-.82.33-1.21.48-.58.22-1.04.53-1.39.86Z"/>
      <path class="cls-2" d="M77.13,10.05c3.95.52,7.51,1.04,10.96,1.97,7.2,1.95,13.97,5.19,20.16,9.65-.29.32-.57.66-.82,1.04-.08.12-.16.23-.23.35-.68-.27-1.4-.4-2.11-.4-.23,0-.47.01-.71.04-2.88.34-4.86,1.66-5.87,3.93-2.31,1.37-3.96,3.93-4.08,6.71v.04s0,.04,0,.04c-.04,1.58.53,3.05,1.6,4.14.16.16.33.31.5.45-1.73,1.44-2.57,3.55-2.36,6.08.04.53.13,1,.2,1.33.02.09.03.17.05.25,0,.51.06,1.12.23,1.77-.95.93-1.87,2.45-1.77,4.83-1.32.88-2.56,1.81-3.76,2.71l-.85.64c-1.78,1.33-2.73,3.5-2.53,5.8.08.91.33,1.77.73,2.53-.22.69-.28,1.28-.32,1.63-.54,5.03.92,8.99,4.33,11.77.53.44,1.14,1.24,1.71,2.02,1.59,2.17,3.87,3.36,6.42,3.36.65,0,1.31-.08,1.97-.24.51-.12,1.17-.15,2.05-.15h.45s.49,0,.49,0c.25,0,.5,0,.74,0,1.41-.03,2.67-.37,3.78-1.04.64.45,1.32.79,2.03,1.01,0,2.09.49,4.51,2.23,6.91.43.59.85,1.37,1.29,2.2.11.21.22.41.34.62-.27.52-.52,1.03-.76,1.53l-.1.2c-1.58,3.24-1.12,6.58,1.2,9.1,0,.28,0,.54.01.77,0,.19.01.44,0,.53-.23,2.68.61,5.07,2.42,6.91.23.24.25.28.21.61-.08.66-.13,1.7.17,2.8-1.15,1.23-2.35,2.4-3.6,3.51-9.04,8.03-19.35,13.08-30.66,15.01-3.87.66-7.71.99-11.42.99-.29,0-.58,0-.87,0,.24-1.66-.28-3.4-1.47-4.79-.22-.26-.45-.5-.71-.75.53-2.4-.17-4.05-.91-5.06.05-.02.1-.05.15-.07.31-.15.62-.3.94-.44.64-.28,2.58-1.12,3.62-3.31.64-1.35,1.74-2.68,2.9-4.09.3-.36.59-.72.89-1.08.99-1.24,2.01-3.19,1.69-5.8,1.2-.21,2.27-.67,3.25-1.37,2.57-1.84,3.93-4.36,4.02-7.5.02-.52.08-1.11.14-1.74.06-.55.12-1.12.16-1.73.04-.6.18-.75.32-.89.8-.85,2.67-2.84,3.07-5.9.47-3.56-1.62-5.79-3.98-6.54-1.21-2.3-3.45-3.66-6.12-3.66-.23,0-.47.01-.72.03-.37.03-.74.05-1.09.05-1.07,0-2.07-.14-3.03-.43-.22-1.29-.68-2.82-1.67-4.3-1.79-2.66-4.04-3.21-5.61-3.21-.2,0-.4,0-.61.03-.87-1.8-2.15-3.09-3.81-3.84l-.08-.04c-.47-.23-1.46-.72-2.82-.72-.64,0-1.61.11-2.63.66-2-1.77-4.36-2-5.64-2.13-.27-.03-.54-.05-.69-.08-.35-.07-.71-.1-1.06-.1-1.72,0-3.28.74-4.43,2.08-.21-1.79-1.11-3.29-2.5-4.28,0-.31-.02-.64-.08-.98.48.15.97.26,1.49.31.22.02.43.03.62.03,1.51,0,2.9-.59,3.91-1.65,1.01-1.07,1.52-2.5,1.44-4.05-.01-.19-.03-.53-.11-.96.13-.11.3-.24.56-.42.67-.46,1.22-.84,1.77-1.16,2.16-1.27,3.46-2.9,3.87-4.88.09-.11.18-.22.27-.33.62-.76,1.33-1.62,1.78-1.86,2.39-1.31,4.32-2.94,5.76-4.34.09,0,.17,0,.26,0,1.17,0,2.27-.37,3.2-1.05.93.68,1.92,1,2.5,1.19l.31.1c.55.18,1.17.39,1.88.55h.05c.32.09.91.23,1.66.23,2.53,0,4.64-1.57,5.39-4.01.52-1.71.28-3.42-.58-4.8.07-.28.13-.55.17-.81.51-3.51-1.14-5.45-2.5-6.42,0-.24-.03-.5-.07-.77,1.34-.45,3.13-1.56,3.97-4.25.48-1.55.31-3.15-.49-4.49-.33-.55-.74-1.03-1.22-1.42-.57-1.88-2-3.39-4.04-4.18-.92-.36-1.88-.74-2.7-1.17-1.39-.74-2.88-1.15-4.45-1.25l.04-.09s0,0,.01,0h10.3M10.76,61.76c.18.28.37.55.57.83.25.41.79,1.28,1.85,1.98,1.02.67,2.07,1.08,3.12,1.23,1.27,2.57,3.91,5.08,6.34,5.68.24.06.48.12.71.18.7.18,1.43.37,2.2.53h.03c.38.12,1.09.33,2.01.33.03,0,.06,0,.09,0,1.04.93,2.33,1.37,3.46,1.44.51.03,1.47.09,2.76,2.05,1.09,1.65,2.46,2.52,3.72,2.99-.99,1.55-1.47,3.39-1.39,5.42.02.4-.03.63-.07.76-.41,1.3-.78,3.88,1.39,6.49.57.68,1.12,1.37,1.67,2.07.5.63,1,1.26,1.51,1.88l.03.04c.1.12.22.27.32.39.39,2.55,2.25,4.52,4.85,5.08.31.07.9.51,1.48.95v2.58s0,4.94,0,4.94v.1c-.01,1.53.34,2.7.86,3.59-.74,3.65.33,6.33,1.74,8.17-.5,2.82.01,5.52,1.55,8.26.21.38.43.74.66,1.11-4.45-1.53-8.77-3.61-12.94-6.23-14.76-9.28-24.16-22.63-27.94-39.67-1.71-7.71-1.9-15.46-.58-23.16M77.46,5.05h-10.98c-1.98.29-3.96.53-5.93.88-8.25,1.43-15.95,4.32-23.11,8.65-1.54.93-3.01,1.98-4.65,3.06.35.18.46.28.56.28,2.74.09,5.34.55,7.45,2.5.11.1.33.11.5.12,1,.07,2,.14,3,.19.04,0,.08,0,.12,0,.64,0,.79-.32.54-.97-.25-.62-.7-.86-1.32-.86-.31,0-.62,0-.93,0-.47,0-.95,0-1.43,0,.38-1.69.19-1.9-1.47-1.93-.02,0-.03,0-.05,0-.2,0-.4.02-.61.02-.29,0-.6-.04-.94-.26,1.04-.77,1.94-1.53,2.93-2.15.47-.29,1.09-.43,1.73-.43,1.27,0,2.64.53,3.24,1.42.57.84,1.28,1.18,2.27,1.28.16.02.31.02.45.02.98,0,1.76-.36,2.43-1.16.19-.22.43-.39.69-.39.15,0,.31.06.45.21.46.46-.17.64-.36.92-.88,1.32-2.25,1.48-3.67,1.55-.41.02-.99-.04-.97.6.02.63-.09,1.59.5,1.77.65.19,1.38.35,2.08.35.63,0,1.24-.13,1.72-.46.91-.64,1.7-1.04,2.76-1.04,0,0,.02,0,.02,0,0,0,0,0,0,0,.69,0,.79-.54.9-1.07.09-.43.06-.75-.42-.95-.35-.14-.95-.07-.79-.78.14-.62.58-.83,1.12-.94.3-.06.61-.08.91-.08.89,0,1.77.19,2.7.19.15,0,.3,0,.46-.02-.31.82-.94,1.11-1.4,1.54-.7.67-.47,1.43-.09,2.03.35.55.92.68,1.5.68.26,0,.53-.03.77-.06.88-.11.45-.92.39-1.39-.16-1.22.24-2.02,1.43-2.39,1.38-.43,2.76-.86,4.15-.86.91,0,1.84.19,2.77.68,1.04.55,2.13.99,3.23,1.42.8.31,1.2.78,1.12,1.66-.06.68.02,1.3.88,1.51.37.09.99.11.78.78-.15.5-.37,1-1.02,1.05-.21.02-.43.04-.64.04-.09,0-.18,0-.27-.01-.12-.01-.23-.02-.35-.02-.81,0-1.38.33-1.61,1.27-.12.47-.41.79-.88.79-.09,0-.19-.01-.29-.04-1.6-.38-3.19-.77-5.1-1.23,1.47-.8,2.67-1.46,3.89-2.1.71-.37.67-.68.15-1.26-.65-.73-1.37-.99-2.17-.99-.37,0-.76.05-1.15.14-1.08.24-2.31-.01-3.15.98-.62.73-1.32,1.21-2.33,1.23-.7.02-1.08.45-.69,1.15.26.47.27.71-.3.79-.38.05-.64.22-.8.58-.15.35-.42.48-.75.48-.07,0-.15,0-.22-.02-.42-.07-.58-.37-.6-.75-.03-.71-.3-.92-.72-.92-.2,0-.44.05-.71.12-2.71.72-4.88,2.47-7.28,3.78-.32.17-.5.42-.49.84.05,1.63,1.28,3.06,2.93,3.36q2.56.45,2.68,2.99c.02.37-.13.88.37,1,.14.03.3.05.44.05.37,0,.73-.12.98-.47.3-.42.5-.91.74-1.38.32-.61.55-1.22,1.32-1.51,2.84-1.08,2.83-1.11,2.85-4.1,0-.04,0-.09,0-.13.02-1.5.99-2.47,2.35-2.47.21,0,.44.02.67.07.72.15,1.43.38,2.16.5.96.16,1.3.64,1.18,1.62-.15,1.24.01,1.79.65,1.79.32,0,.76-.14,1.33-.4.32-.14.63-.31.94-.46.62-.31,1.03-.48,1.3-.48.42,0,.48.44.44,1.53-.06,1.48.44,2.41,1.77,2.96.84.35.9.99.78,1.82-.15,1.04-.95,1.12-1.66,1.4-.32.13-.69.24-.7.67,0,.39.24.64.58.8.55.26,1.09.54,1.65.78.55.23.9.59.71,1.2-.11.37-.35.48-.61.48-.2,0-.41-.06-.6-.1-.59-.13-1.17-.34-1.75-.53-1.57-.51-1.63-.7-.71-2.06.3-.44.37-.94,0-1.31-.17-.17-.38-.27-.6-.27-.18,0-.37.07-.57.23-.78.63-1.35.94-1.9.94s-1.07-.3-1.77-.89c-.39-.33-.83-.47-1.28-.47-.31,0-.62.07-.94.19-.49.19-.71.6-.71,1.14,0,.92.73.96,1.34,1.15.29.09.68.13.43.57-.12.21-.3.4-.53.4-.1,0-.21-.04-.33-.12-.34-.24-.66-.35-.96-.35-.47,0-.9.27-1.32.72-1.72,1.82-3.55,3.45-5.8,4.69-1.73.95-2.89,2.74-4.22,4.24-.16.18-.3.48-.29.71.08,1.16-.68,1.69-1.54,2.19-.71.42-1.4.89-2.08,1.36-1.89,1.3-3.31,2.85-2.64,5.4.03.13.04.26.05.39.02.3-.1.41-.36.41-.04,0-.08,0-.12,0-1.04-.1-1.92-.95-1.92-2.04,0-1-.4-1.39-1.35-1.39-.02,0-.04,0-.06,0-.19,0-.38,0-.57,0-1.02,0-2.05-.04-3.07-.04-.71,0-1.41.02-2.11.08-2.04.18-3.92,1.09-5.27,2.56-1.09,1.19-1.69,2.8-2.12,4.44-.39,1.47.23,2.58,1.04,3.58.26.32,1.02.46,1.83.46.88,0,1.83-.17,2.26-.45,1.13-.74,2.26-1.48,3.37-2.25.23-.16.42-.24.56-.24.26,0,.39.24.46.7.07.42-.04.76-.2,1.13-1.1,2.4-1.1,2.42,1.61,2.9.76.14,1.15.43,1.16,1.26.02,1.17.24,2.35.21,3.51-.03,1.11.49,1.42,1.47,1.73.87.28,1.68.42,2.44.42,1.79,0,3.26-.84,4.36-2.82.19-.34.49-.72.89-.72.04,0,.08,0,.13.01,1.61.31,3.43,0,4.53,1.75.36.58,1.74.94,2.91.94.77,0,1.46-.16,1.71-.51.28-.4.51-.53.74-.53.26,0,.52.17.83.31.74.33,1.16.96,1.45,1.62.78,1.76,1.94,2.77,3.69,2.77.32,0,.66-.03,1.02-.1.11-.02.22-.03.32-.03.63,0,1.05.4,1.46,1.01.83,1.23.97,2.59,1.06,3.97.05.77.4,1.11,1.06,1.44,2.16,1.05,4.4,1.52,6.73,1.52.5,0,1.01-.02,1.52-.07.1,0,.2-.01.3-.01.84,0,1.43.34,1.78,1.18.51,1.2,1.38,1.97,2.69,2.21.66.12.75.5.67,1.15-.17,1.3-.94,2.26-1.76,3.14-1.07,1.15-1.56,2.46-1.66,3.99-.08,1.22-.27,2.43-.31,3.64-.05,1.54-.63,2.66-1.93,3.59-.68.48-1.37.58-2.06.58-.47,0-.95-.05-1.43-.05-.05,0-.11,0-.16,0-.73.02-1.14.25-1.6.84-1.08,1.37-.56,2.73-.18,4.1.27.99.18,1.78-.51,2.63-1.58,1.96-3.3,3.84-4.4,6.15-.22.46-.66.68-1.1.88-1.59.69-3.07,1.66-4.89,1.74-.45.02-.82.26-.87.81-.04.48.21.67.61.86,1.29.6,1.31.97.23,2.03-.35.34-1.01.58-.72,1.23.27.61.7,1.15,1.44,1.15.05,0,.1,0,.15,0,.08,0,.16-.01.23-.01.85,0,.9.57.74,1.3-.1.47-.22.93-.38,1.38-.34.98-.17,1.77.71,2.4.53.38,1.05.8,1.47,1.29.42.49.5,1.25-.3,1.28-.58.02-1.15.08-1.73.08-.96,0-1.91-.17-2.82-.98-1.85-1.65-3.37-3.44-4.59-5.6-.9-1.61-1.31-3.13-.99-4.96.19-1.07.55-2.35-.38-3.25-1.75-1.69-1.81-3.62-1.14-5.75.12-.37.13-.77.2-1.16.09-.44-.01-.81-.45-.96-.83-.28-.76-.95-.76-1.61,0-2.92,0-5.84,0-8.75,0-.61.04-1.24-.55-1.66-1.56-1.09-2.92-2.52-4.88-2.94-.62-.13-.93-.52-.97-1.07-.09-1.13-.75-1.91-1.41-2.73-1.08-1.31-2.11-2.66-3.19-3.97-.45-.54-.68-1.09-.46-1.79.25-.8.33-1.63.29-2.45-.07-1.87.67-3.15,2.34-4.1,1.45-.82,1.61-2.16.9-4.49-.23-.77-.72-.88-1.25-.88-.21,0-.42.02-.62.02-.15,0-.3,0-.44-.04-1.42-.32-3.02.13-4.08-1.48-1.55-2.36-3.6-4.11-6.63-4.29-.51-.03-.66-.43-.74-.92-.1-.66-.98-1.25-1.65-1.25-.24,0-.46.08-.6.25-.31.37-.59.48-.87.48-.32,0-.63-.14-.95-.21-.94-.19-1.86-.45-2.79-.68-1.14-.29-3.19-2.57-3.31-3.71-.02-.24.03-.55.16-.74.63-.89.26-1.59-.28-2.36-1.57-2.23-3.44-4.33-3.39-7.31,0-.2-.11-.43-.24-.6-.18-.25-.42-.33-.68-.33-.13,0-.26.02-.38.04-.35.06-.58.3-.52.64.25,1.4.05,2.89.92,4.16.57.82,1.1,1.68,1.62,2.53.36.59.6,1.35-.01,1.76-.16.11-.34.15-.52.15-.43,0-.91-.23-1.3-.48-.2-.13-.31-.41-.46-.62-1.54-2.1-2.46-4.39-2.04-7.06.22-1.38-.34-2.25-1.67-2.65-.95-.28-1.24-.95-1.18-1.9.04-.65.14-1.34-.15-2.02-.18.13-.28.16-.32.23-.13.23-.25.46-.35.7-5.01,12.65-6.25,25.67-3.3,38.95,4.09,18.42,14.19,32.78,30.16,42.82,10.9,6.86,22.57,10.19,34.86,10.19,4.02,0,8.11-.36,12.27-1.07,12.6-2.15,23.6-7.72,33.14-16.2,2.32-2.06,4.46-4.29,6.43-6.68.14-.34.15-.95-.06-1.03-1.28-.38-1.42-.75-1.3-1.69.24-1.86-.3-3.43-1.6-4.75-.82-.83-1.11-1.83-1.01-2.98.06-.74-.04-1.49.02-2.22.1-1.1-.29-1.9-1.1-2.64-1.17-1.07-1.34-2.32-.63-3.77.48-.98.95-1.96,1.5-2.9.45-.76.44-1.41-.03-2.17-.93-1.52-1.65-3.19-2.7-4.62-1.38-1.89-1.45-3.89-1.08-6.05.37-2.12.23-2.26-1.9-2.53-.36-.05-.73-.08-1.09-.08-.03,0-.05,0-.08,0,0,0-.02,0-.03,0-.64,0-1.13-.27-1.6-.7-.81-.74-1.61-1.12-2.42-1.12s-1.58.34-2.41,1.02c-.48.39-.98.5-1.57.51-.22,0-.43,0-.65,0-.31,0-.62,0-.93,0-1.07,0-2.14.03-3.22.29-.28.07-.55.1-.81.1-.92,0-1.74-.42-2.39-1.31-.77-1.05-1.59-2.12-2.58-2.94-2.41-1.97-2.82-4.51-2.52-7.36.06-.53.1-.95.59-1.34,1.11-.88.94-2-.31-2.64-.84-.42-.95-1.91-.15-2.51,1.64-1.22,3.26-2.49,4.99-3.58,1.29-.82,1.89-1.8,1.69-3.33-.08-.61-.28-1.41.38-1.82,1.23-.77,2.39-1.68,3.97-1.68.1,0,.21,0,.31.01.62.05,1.26.14,1.89.14s1.26-.09,1.84-.42c1.21-.69,2.46-1.04,3.84-1.1,1-.04,2-.1,3-.2.58-.06,1.01-.11,1.35-.11,1.03,0,1.06.44,1.01,2.27-.03,1.1.41,1.51,1.4,1.79,1.91.54,3.94.69,5.69,1.82.23.15.45.22.65.22.42,0,.74-.33.78-1.02.03-.42-.1-1.07.43-1.11.69-.05,1.44-.32,2.14-.32.51,0,1.01.14,1.45.61,1.48,1.59,3.25,1.9,5.11,1.9.68,0,1.36-.04,2.05-.08.93-.05,1.22-.51.88-1.4-.34-.9-.72-1.79-.91-2.72-.26-1.29-.88-1.95-1.99-1.95-.21,0-.43.02-.67.07-.19.04-.37.05-.54.05-1.07,0-1.81-.66-2.4-1.54-.5-.75-.39-1.68-.52-2.53-.07-.45-.2-.67-.47-.67-.12,0-.28.05-.47.13-.75.35-1.33.79-1.48,1.67-.1.6-.27,1.19-.44,1.77-.06.19-.15.52-.33.52-.07,0-.14-.04-.23-.15-.82-1.01-2.16-1.67-2.1-3.29.05-1.43-2.63-4.37-4.06-4.56-.24-.03-.49-.04-.74-.04-.32,0-.64.02-.96.02-.58.01-.74.3-.61.86.33,1.34.99,2.33,2.32,2.93,1.13.51,2.52.88,1.73,2.82-.36.89-.77,1.65-1.66,1.65-.09,0-.19,0-.29-.02-.49-.08-1.22-.14-1.2-.77,0-.31.18-.38.39-.38.19,0,.41.06.6.06.03,0,.06,0,.09,0,.48-.06.85-.23,1.02-.68.22-.58-.3-.76-.63-.99-1.15-.8-2.31-1.57-3.47-2.34-.44-.29-.87-.58-1.01-1.14-.13-.53-.31-.73-.53-.73-.23,0-.51.22-.81.49-.43.39-.82,1.05-1.41,1.05-.1,0-.2-.02-.31-.06-.33-.12-.62-.17-.88-.17-.96,0-1.52.73-2.1,1.54-.45.64-1.15,1.18-1.39,1.89-.76,2.21-2.31,2.63-4.07,2.63-.43,0-.87-.02-1.32-.05-.48-.03-.95-.01-1.41-.2-.81-.33-1.46-.71-1.44-1.75.01-.64-.21-1.29-.26-1.94-.12-1.39.43-2,1.74-2.42.57-.18,1.13-.26,1.68-.26.9,0,1.79.19,2.68.4.15.03.29.06.43.06.38,0,.68-.17.76-.68.08-.52.47-1.24-.31-1.46-1.29-.37-.58-1.26-.57-1.92.01-.72.41-1.2,1.24-1.21,1.65-.02,2.91-.68,3.65-2.22.74-1.54,1.99-1.92,3.4-1.92.34,0,.69.02,1.05.06.48.04.95.14,1.42.18.05,0,.09,0,.15,0,.24,0,.5-.05.54-.26.18-.95.13-1.97-.35-2.78-.13-.21-.28-.28-.45-.28-.34,0-.74.31-1.05.46-.31.15-.56.23-.78.23-.46,0-.75-.33-.93-1-.18-.65-.53-1.1-1.32-1.26-.87-.18-1.13-1.09-.61-1.85.4-.58.89-1.06,1.58-1.31.7-.25,1.41-.49,2.05-.84,1.09-.59,1.22-1.64.34-2.38-7.7-6.5-16.37-11.18-26.13-13.82-3.92-1.06-7.92-1.62-11.93-2.14h0ZM104.72,35.06c-.34,0-.63-.09-.74-.6-.19-.86.07-1.41,1.08-1.72.9-.28.57-1.05.06-1.54-.4-.38-.93-.64-1.41-.94-.55-.35-.97-.73-.67-1.49.35-.9,1.15-1.01,1.92-1.1.05,0,.09,0,.13,0,.66,0,.58.69.67,1.11.42,1.84,1.19,3.45,2.91,4.41.55.31.33.59.07.92-.82,1.06-2.04.77-3.12.96-.1-.03-.21-.04-.32-.04-.19,0-.39.03-.58.03h0ZM100.05,34.25c-.38,0-.63-.24-.62-.7.06-1.48,1.36-2.83,2.57-2.94.08,0,.16-.01.23-.01.47,0,.91.15,1.11.57.23.48.05,1.05-.4,1.39-.72.55-1.45,1.1-2.25,1.51-.23.12-.45.18-.64.18h0Z"/>
    </g>
    <g id="Outline">
      <path class="cls-3" d="M72,5c36.94,0,67,30.06,67,67s-30.06,67-67,67S5,108.94,5,72,35.06,5,72,5M72,0C32.24,0,0,32.24,0,72s32.24,72,72,72,72-32.24,72-72S111.76,0,72,0h0Z"/>
    </g>
  </g>
  <g id="Fire">
    <g>
      <path class="cls-1" d="M71.43,142.34s-.07,0-.11,0c-33.55-5.7-34.86-27.39-34.46-33.91,3.31-17.1,4.3-27.71,3.11-33.39-.05-.24.03-.4.11-.5.12-.14.29-.23.47-.23.11,0,.21.03.31.1,5.56,3.46,9,7.54,10.91,10.35.49.72,1.27,1.13,2.14,1.13,1.1,0,2.06-.66,2.44-1.68,9.78-25.84,3.91-43.5-.46-51.72-.11-.2-.11-.39,0-.56.12-.19.34-.33.55-.33.12,0,.24.04.36.13,39.2,28.55,44.23,53.48,43.74,65.79-.03.72.22,1.4.71,1.9.5.52,1.19.81,1.92.81.87,0,1.65-.42,2.14-1.15l.09-.13c.1-.15.25-.23.43-.23s.48.1.56.46c2.49,12.74.72,22.95-5.25,30.33-9.81,12.13-27.7,12.8-29.7,12.83h0Z"/>
      <path class="cls-3" d="M57.53,33.49c16.58,12.28,28.48,25.13,35.37,38.21,5.89,11.18,6.86,20.18,6.64,25.77-.04,1,.31,1.93.99,2.64.68.71,1.64,1.12,2.64,1.12.91,0,1.76-.33,2.41-.93,2.17,12.01.41,21.62-5.23,28.59-9.48,11.72-26.8,12.42-28.9,12.46-14.77-2.51-24.87-8.35-30.02-17.35-2.62-4.58-3.89-10.06-3.57-15.43,3.16-16.33,4.21-26.81,3.26-32.8,4.96,3.26,8.07,6.96,9.83,9.56.67.98,1.78,1.57,2.97,1.57,1.52,0,2.84-.91,3.38-2.33,9.37-24.76,4.55-42.15.24-51.06M106.22,99.52h0,0M37.86,108.48h0,0M56.44,30.59c-1.1,0-2.05,1.19-1.43,2.36,4.71,8.86,9.85,25.95.41,50.9-.26.68-.88,1.04-1.51,1.04-.49,0-.99-.22-1.31-.7-1.85-2.72-5.39-7.01-11.21-10.63-.27-.17-.56-.25-.84-.25-.94,0-1.78.87-1.56,1.94.96,4.55.67,13.52-3.11,33,0,.04-.01.08-.02.12-.24,3.92-1.31,28.74,35.29,34.96.09.01.18.02.26.02,0,0,.02,0,.03,0,2.83-.05,44.28-1.52,35.92-44.36-.16-.81-.84-1.27-1.54-1.27-.47,0-.94.21-1.26.67-.03.04-.06.08-.09.13-.34.49-.83.71-1.32.71-.84,0-1.67-.65-1.63-1.68.47-11.76-4.08-37.46-44.15-66.64-.31-.22-.63-.32-.95-.32h0Z"/>
    </g>
    <g>
      <path class="cls-4" d="M69.61,142.34c-1.87,0-3.72-.33-5.49-.98-6.94-2.53-14.25-8.38-10.8-21.86l5.21,7.23-1.43-5.3c-.05-.21-5-20.45,24.24-40.05-2.8,5.9-6.98,18.41-.09,31l.89,1.63.87-1.64c.03-.06,2.94-5.49,7.22-7.32.48,3.05,1.69,11.55,1.22,18-.51,7.09-6.86,14.36-15.8,18.08-1.92.8-3.96,1.21-6.04,1.21Z"/>
      <path class="cls-3" d="M78.96,84.26c-2.56,6.74-4.66,17.53,1.4,28.6l1.78,3.25,1.74-3.28c.03-.05,2.26-4.2,5.56-6.26.54,3.72,1.4,10.84,1,16.4-.48,6.62-6.72,13.71-15.19,17.23-1.8.75-3.7,1.13-5.66,1.13-1.75,0-3.48-.31-5.15-.91-6.16-2.25-12.62-7.27-10.64-18.51l.69.95,6.23,8.65-2.68-10.33c-.01-.05-1.33-5.32,1.29-12.93,2.12-6.16,7.26-14.98,19.61-23.99M84.08,78.44c-33.98,20.91-27.95,43.26-27.95,43.26l-3.2-4.45c-5.18,16.4,4.45,22.72,10.85,25.06,1.89.69,3.86,1.04,5.83,1.04,2.19,0,4.37-.43,6.43-1.29,8.9-3.71,15.85-11.22,16.41-18.93.59-8.18-1.42-19.4-1.42-19.4-5.34,1.42-8.9,8.19-8.9,8.19-9.26-16.91,1.96-33.47,1.96-33.47h0Z"/>
    </g>
  </g>
</svg>